<?xml version="1.0" encoding="UTF-8"?>
<svg width="18px" height="18px" viewBox="0 0 18 18" version="1.1" xmlns="http://www.w3.org/2000/svg" xmlns:xlink="http://www.w3.org/1999/xlink">
    <!-- Generator: Sketch 63 (92445) - https://sketch.com -->
    <title>icon/form/material</title>
    <desc>Created with Sketch.</desc>
    <g id="icon/form/material" stroke="none" stroke-width="1" fill="none" fill-rule="evenodd">
        <g id="icon/material">
            <g id="icon/bg"></g>
            <path d="M11.5714286,0 C11.8633535,0 12.140703,0.127562729 12.3306852,0.349208627 L15.7592566,4.34920863 C15.9146078,4.53045174 16,4.76128873 16,5 L16,16 C16,17.1045695 15.1045695,18 14,18 L4,18 C2.8954305,18 2,17.1045695 2,16 L2,2 C2,0.8954305 2.8954305,0 4,0 L11.5714286,0 Z M10,2 L4,2 L4,16 L14,16 L14,6 L12,6 C10.8954305,6 10,5.1045695 10,4 L10,4 L10,2 L10,2 Z M12,11.6032105 C12.5522847,11.6032105 13,12.0509258 13,12.6032105 C13,13.1554953 12.5522847,13.6032105 12,13.6032105 L12,13.6032105 L6,13.6032105 C5.44771525,13.6032105 5,13.1554953 5,12.6032105 C5,12.0509258 5.44771525,11.6032105 6,11.6032105 L6,11.6032105 Z M12,8 C12.5522847,8 13,8.44771525 13,9 C13,9.55228475 12.5522847,10 12,10 L12,10 L6,10 C5.44771525,10 5,9.55228475 5,9 C5,8.44771525 5.44771525,8 6,8 L6,8 Z M12,3.037 L12,4 L12.826,4 L12,3.037 Z" id="详情" fill="#F47920"></path>
        </g>
    </g>
</svg>