<?xml version="1.0" encoding="UTF-8"?>
<svg width="18px" height="18px" viewBox="0 0 18 18" version="1.1" xmlns="http://www.w3.org/2000/svg" xmlns:xlink="http://www.w3.org/1999/xlink">
    <!-- Generator: Sketch 63 (92445) - https://sketch.com -->
    <title>icon/btn/pencil</title>
    <desc>Created with Sketch.</desc>
    <g id="icon/btn/pencil" stroke="none" stroke-width="1" fill="none" fill-rule="evenodd">
        <g id="icon/material">
            <g id="icon/bg"></g>
        </g>
        <path d="M16,15.5 C16.5522847,15.5 17,15.9477153 17,16.5 C17,17.0522847 16.5522847,17.5 16,17.5 L16,17.5 L4,17.5 C3.44771525,17.5 3,17.0522847 3,16.5 C3,15.9477153 3.44771525,15.5 4,15.5 L4,15.5 Z M11.827922,0.792893219 L15.6799684,4.64493965 C16.0704927,5.03546394 16.0704927,5.66862892 15.6799684,6.05915321 L7.39769199,14.3414296 C7.25313356,14.485988 7.06774193,14.5827674 6.8664933,14.6187294 L2.17634251,15.4568338 C1.49116069,15.579272 0.893589575,14.9817009 1.01602783,14.2965191 L1.85413219,9.60636832 C1.89009422,9.40511969 1.98687357,9.21972806 2.131432,9.07516963 L10.4137084,0.792893219 C10.8042327,0.402368927 11.4373977,0.402368927 11.827922,0.792893219 Z M16,12.5 C16.5522847,12.5 17,12.9477153 17,13.5 C17,14.0522847 16.5522847,14.5 16,14.5 L16,14.5 L11,14.5 C10.4477153,14.5 10,14.0522847 10,13.5 C10,12.9477153 10.4477153,12.5 11,12.5 L11,12.5 Z M8.259,5.775 L3.76770364,10.2673251 L3.23729509,13.2355665 L6.2055365,12.705158 L10.697,8.213 L8.259,5.775 Z M11.1208152,2.91421356 L9.673,4.361 L12.111,6.799 L13.5586481,5.35204643 L11.1208152,2.91421356 Z" id="形状结合" fill="#F47920"></path>
    </g>
</svg>