<?xml version="1.0" encoding="UTF-8"?>
<svg width="18px" height="18px" viewBox="0 0 18 18" version="1.1" xmlns="http://www.w3.org/2000/svg" xmlns:xlink="http://www.w3.org/1999/xlink">
    <!-- Generator: Sketch 63 (92445) - https://sketch.com -->
    <desc>Created with Sketch.</desc>
    <g id="icon/form/得出结论" stroke="none" stroke-width="1" fill="none" fill-rule="evenodd">
        <g id="icon/bg"></g>
        <path d="M14,2.06057393e-13 C15.1045695,2.06057393e-13 16,0.8954305 16,2 L16,7.5 C9.92486775,7.5 5,11.9771525 5,17.5 C5,17.6679506 5.0045544,17.8349341 5.01355706,18.0008541 L4,18 C2.8954305,18 2,17.1045695 2,16 L2,2 C2,0.8954305 2.8954305,2.06057393e-13 4,2.06057393e-13 L14,2.06057393e-13 Z M12,9 C13.6568542,9 15,10.3431458 15,12 C15,13.3058822 14.1656226,14.4168852 13.0009007,14.8289758 L13,16 L16,16 C16.5522847,16 17,16.4477153 17,17 C17,17.5522847 16.5522847,18 16,18 L8,18 C7.44771525,18 7,17.5522847 7,17 C7,16.4477153 7.44771525,16 8,16 L11,16 L11.0000889,14.8293257 C9.8348501,14.4175144 9,13.3062521 9,12 C9,10.3431458 10.3431458,9 12,9 Z M12,11 C11.4477153,11 11,11.4477153 11,12 C11,12.5522847 11.4477153,13 12,13 C12.5522847,13 13,12.5522847 13,12 C13,11.4477153 12.5522847,11 12,11 Z M14,2 L4,2 L4,12.8699352 C5.71892007,9.07355198 9.48789505,6.28528314 14,5.64137941 L14,2 Z M6,6 C6.55228475,6 7,6.44771525 7,7 C7,7.55228475 6.55228475,8 6,8 C5.44771525,8 5,7.55228475 5,7 C5,6.44771525 5.44771525,6 6,6 Z M12,3 C12.5522847,3 13,3.44771525 13,4 C13,4.55228475 12.5522847,5 12,5 L6,5 C5.44771525,5 5,4.55228475 5,4 C5,3.44771525 5.44771525,3 6,3 L12,3 Z" id="形状结合" fill="#333"></path>
    </g>
</svg>